/* XPM */
static char *lsearchFrm_WxBitmapButton3_XPM[]={
/* lsearchFrm_WxBitmapButton3 */
"22 22 136 2",
"      c None",
" 0    c #6C8577",
" 1    c #4D7991",
" 2    c #38678B",
" 3    c #416C8A",
" 4    c #57787D",
" 5    c #6E8354",
" 6    c #95A171",
" 7    c #427092",
" 8    c #6296BB",
" 9    c #81ADD1",
" a    c #74A8D3",
" b    c #8FB6DB",
" c    c #75A9D5",
" d    c #63A0CE",
" e    c #53798A",
" f    c #496E82",
" g    c #6A7F5A",
" h    c #51798A",
" i    c #67A2CE",
" j    c #44789C",
" k    c #3F7296",
" l    c #3B6C91",
" m    c #477DA3",
" n    c #74A8D4",
" o    c #6BA5D3",
" p    c #4A80A8",
" q    c #3F6A89",
" r    c #6C8157",
" s    c #5E7C79",
" t    c #6D8D8E",
" u    c #5B7E88",
" v    c #7A8D64",
" w    c #788B5C",
" x    c #426E88",
" y    c #477DA2",
" z    c #5E9AC7",
" A    c #5B96C1",
" B    c #4A80A6",
" C    c #3F6C86",
" D    c #74834D",
" E    c #4D7282",
" F    c #708A82",
" G    c #99A36C",
" H    c #778B6C",
" I    c #538CB5",
" J    c #5892BD",
" K    c #609DCB",
" L    c #547780",
" M    c #607D6E",
" N    c #5B7A72",
" O    c #7C816D",
" P    c #6E706B",
" Q    c #75796C",
" R    c #688993",
" S    c #54727B",
" T    c #788865",
" U    c #72756B",
" V    c #F6F6F6",
" W    c #609CCA",
" X    c #838580",
" Y    c #ECECEC",
" Z    c #EBEBEB",
" &    c #5089B2",
"0     c #63A1D0",
"00    c #D8DAD8",
"01    c #9B9D99",
"02    c #EAEBEA",
"03    c #629FCE",
"04    c #3C6D91",
"05    c #E1E2E1",
"06    c #949691",
"07    c #CCCCCB",
"08    c #E3E3E3",
"09    c #67A3D2",
"0a    c #518BB5",
"0b    c #5C97C3",
"0c    c #5E99C6",
"0d    c #CFCFCD",
"0e    c #E6E6E6",
"0f    c #D2D6CC",
"0g    c #4E87B0",
"0h    c #5088B1",
"0i    c #CCD1C5",
"0j    c #777975",
"0k    c #CAD0C4",
"0l    c #7F817E",
"0m    c #8E8F8D",
"0n    c #E5E5E5",
"0o    c #EDEDED",
"0p    c #B8B8B8",
"0q    c #E7E7E7",
"0r    c #E9E9E8",
"0s    c #D3D8CC",
"0t    c #E2E2E1",
"0u    c #E0E0E0",
"0v    c #B1B1B0",
"0w    c #676964",
"0x    c #D0D0D0",
"0y    c #F3F3F3",
"0z    c #C6CCC0",
"0A    c #C9CEC3",
"0B    c #E2E3E1",
"0C    c #F1F1F1",
"0D    c #CECECE",
"0E    c #666864",
"0F    c #E1E1E1",
"0G    c #CDCDCD",
"0H    c #CCCCCC",
"0I    c #C8C8C8",
"0J    c #DBDBDB",
"0K    c #919191",
"0L    c #989898",
"0M    c #A3A4A2",
"0N    c #B0B0B0",
"0O    c #B2B2B2",
"0P    c #BBBBBB",
"0Q    c #BCBCBC",
"0R    c #C5C5C5",
"0S    c #D1D1D1",
"0T    c #C0C0C0",
"0U    c #D6D6D6",
"0V    c #D7D7D7",
"0W    c #949494",
"0X    c #979797",
"0Y    c #A5A5A5",
"0Z    c #A9A9A9",
"0&    c #ACACAC",
"1     c #BABABA",
"10    c #C1C1C1",
"11    c #C4C4C4",
"12    c #C9C9C9",
"13    c #C5C5C4",
"14    c #C7C7C7",
"15    c #CBCBCB",
"16    c #555753",
"       0 1 2 2 2 2 3 4 5                    ",
"     6 7 8 9 a b c d e f g                  ",
"   6 h i j k l m d n o p q r                ",
"   s t u v   w x y z z A B C D              ",
"   E F G       H l I J A K L M              ",
"   N O P P P P Q 2 J J J J R S P P P P P    ",
"   T U V V V V V 2 J J J J W 2 V V V V P    ",
"   P X Y V Z Z Z 2 J & J J0  2 Z Z00 Z X P  ",
"   P01 Y02 V 2 2 2 J & J J03 204 205 Z06 P  ",
"   P0708 Z Z 2 W W09 &0a J A0b0c 2 Z Z0d P  ",
"   P0e08 Z Z0f04 W0g0h0g &0g0b040i Z Z Y P  ",
" P0j Y V Z Z Z0k 2 W0g0g0h0b 20k Z Z V Y0l P",
" P0m Y0n V V0o Z0k 2 W0h0b 20k Z V V0n Y0m P",
" P0p0q0r0q0n V V V0s 2 W040s V V0n0n0t0u0v P",
"0w0x0y0n0n0n0n0n0n0n0z 20A0n0n0n0n0t0B0C0D0E",
" P V V V V V V V V V V V V V V V V V V V V P",
" P0F0D0D0D0D0D0D0D0G0G0G0G0G0G0G0H0H0H0H0F P",
" P0F0I0J0K0L0M0N0O0P0Q0R0S0T0U0T0U0T0U0T0F P",
" P0F0I0V0W0X0Y0Z0&1 10110S0T0U0T0U0T0U0T0F P",
" P0F120D1310110T0T0T14140S0T0U0T0U0T0U0T0F P",
" P150F0F0F0F0F0F0F0F0F0F0F0F0F0F0F0F0F0F0I P",
"16 P P P P P P P P P P P P P P P P P P P P16"};

