/* XPM */
static char *lsearchFrm_WxBitmapButton2_XPM[]={
/* lsearchFrm_WxBitmapButton2 */
"22 22 189 2",
"      c None",
" 0    c #A2A49F",
" 1    c #A2A59F",
" 2    c #9FA19C",
" 3    c #9EA19B",
" 4    c #9DA09B",
" 5    c #ABAEA7",
" 6    c #FFFFFF",
" 7    c #F2F2F2",
" 8    c #5D5D5D",
" 9    c #5B5D5A",
" a    c #5C5E5C",
" b    c #5C5E5D",
" c    c #666866",
" d    c #A7A9A4",
" e    c #FCFCFB",
" f    c #FCFCFC",
" g    c #FAFAFA",
" h    c #EEEEED",
" i    c #A8ABA5",
" j    c #4F4F4D",
" k    c #BEBFBE",
" l    c #A7A9A5",
" m    c #C1C3C0",
" n    c #CBCBCA",
" o    c #B1B2B1",
" p    c #B3B3B2",
" q    c #B3B4B2",
" r    c #B3B3B3",
" s    c #C2C3C1",
" t    c #A6A9A3",
" u    c #4D4F4C",
" v    c #B2B3B2",
" w    c #80807F",
" x    c #8A8B89",
" y    c #FBFBFB",
" z    c #EFEFED",
" A    c #EFEFEE",
" B    c #F3F3F1",
" C    c #F5F5F4",
" D    c #F5F5F3",
" E    c #F3F3F2",
" F    c #F2F2F1",
" G    c #F2F2F0",
" H    c #F0F0EF",
" I    c #F0F0EE",
" J    c #F4F4F2",
" K    c #DADBDA",
" L    c #4B4C4A",
" M    c #B9BBC1",
" N    c #939393",
" O    c #E0E0DF",
" P    c #F0F0F0",
" Q    c #D0D0CE",
" R    c #9C9D9B",
" S    c #A4A6A4",
" T    c #A5A6A4",
" U    c #A0A2A0",
" V    c #A7A8A6",
" W    c #C6C6C4",
" X    c #F1F1F0",
" Y    c #C4C6C2",
" Z    c #AEB1AB",
" &    c #4D4F4B",
"0     c #9B9B9B",
"00    c #858683",
"01    c #A1A49E",
"02    c #E9E9E8",
"03    c #CFCFCC",
"04    c #CACBC8",
"05    c #C9CBC7",
"06    c #CACAC8",
"07    c #CBCCC9",
"08    c #CBCCC8",
"09    c #CCCDC9",
"0a    c #E0E1E0",
"0b    c #C9CAC9",
"0c    c #9C9F9A",
"0d    c #AFB2AC",
"0e    c #555753",
"0f    c #9A9B99",
"0g    c #A4A4A4",
"0h    c #90928F",
"0i    c #E3E3E3",
"0j    c #D5D5D3",
"0k    c #ADAEAC",
"0l    c #A0A29F",
"0m    c #A0A19F",
"0n    c #9FA19E",
"0o    c #9F9F9C",
"0p    c #9E9F9C",
"0q    c #9FA19D",
"0r    c #A3A5A0",
"0s    c #ACADA9",
"0t    c #E0E0DE",
"0u    c #848582",
"0v    c #A8ABA4",
"0w    c #B8BCBD",
"0x    c #5E758F",
"0y    c #3465A4",
"0z    c #3C68A1",
"0A    c #5A718D",
"0B    c #727371",
"0C    c #A5A8A2",
"0D    c #D9D9D8",
"0E    c #868A8D",
"0F    c #BBCEE3",
"0G    c #BCCFE4",
"0H    c #BCD0E5",
"0I    c #BCD0E6",
"0J    c #BDD1E7",
"0K    c #BED2E8",
"0L    c #4D6D94",
"0M    c #6B6C6B",
"0N    c #E6E6E5",
"0O    c #4E6D95",
"0P    c #B3C8E1",
"0Q    c #89AED6",
"0R    c #A3BFDE",
"0S    c #416693",
"0T    c #575855",
"0U    c #9FA19B",
"0V    c #CCCECB",
"0W    c #547093",
"0X    c #B2C8E0",
"0Y    c #95ADCB",
"0Z    c #396296",
"0&    c #5F605E",
"1     c #ACAEAA",
"10    c #C0C1BD",
"11    c #879AAE",
"12    c #B1C7E0",
"13    c #98B8DB",
"14    c #8AA4C4",
"15    c #51514F",
"16    c #AAADA6",
"17    c #687582",
"18    c #A0B0C1",
"19    c #A1BEDD",
"1a    c #88ADD6",
"1b    c #87ADD5",
"1c    c #87ACD6",
"1d    c #87ACD5",
"1e    c #A2BFDE",
"1f    c #6D8BB0",
"1g    c #5C5D5A",
"1h    c #878885",
"1i    c #8191A5",
"1j    c #ACC5DF",
"1k    c #92B5D9",
"1l    c #80A9D4",
"1m    c #80A8D4",
"1n    c #80A8D3",
"1o    c #7FA8D4",
"1p    c #81A8D4",
"1q    c #92B4D9",
"1r    c #9EBCDD",
"1s    c #3F618C",
"1t    c #5C5C5A",
"1u    c #7B7C79",
"1v    c #93AAC2",
"1w    c #9AB9DB",
"1x    c #79A3D2",
"1y    c #79A4D1",
"1z    c #78A3D2",
"1A    c #79A4D2",
"1B    c #8CB1D8",
"1C    c #6C8AAF",
"1D    c #404040",
"1E    c #696A67",
"1F    c #B2C4D8",
"1G    c #87AED7",
"1H    c #719FD0",
"1I    c #719FCF",
"1J    c #709FCF",
"1K    c #729FD0",
"1L    c #87AED6",
"1M    c #446081",
"1N    c #141414",
"1O    c #585958",
"1P    c #6B9BCE",
"1Q    c #6B9ACD",
"1R    c #6A9ACE",
"1S    c #6A9ACD",
"1T    c #83AAD5",
"1U    c #839DBD",
"1V    c #44566A",
"1W    c #292928",
"1X    c #30527E",
"             0 1 2 3 3 3 3 3 3 3 3 2 3 4    ",
"             5 6 6 6 6 6 6 6 6 6 6 6 7 1    ",
" 8 9 a a b c d 6 e f f f f f f f g g h i    ",
" j k k k k l m 6 n o p q p p r p o s h t    ",
" u v w w x t y z A B C D E F G H I J K 1    ",
" L M N N t O P Q R S S T S U U V W X Y Z    ",
" & r0 000102030405060607060809060a0b0c0d    ",
"0e0f0g0h0i0j0k0l0m0n0o0p0o0q0r0s0t0c Z      ",
"0e0u0m0v0w0x0y0y0y0y0y0y0y0y0z0z0y0y0y0y0y0A",
"0e0B0C0D0E0F0G0G0H0I0J0K0J0J0K0K0K0K0K0K0K0L",
"0e0M 10N0O0P0Q0Q0Q0Q0Q0Q0Q0Q0Q0Q0Q0Q0Q0Q0R0S",
"0e0T0U0V0W0X0Q0Q0Q0Q0Q0Q0Q0Q0Q0Q0Q0Q0Q0Q0Y0Z",
"  0&1 1011120Q0Q0Q0Q0Q0Q0Q0Q0Q0Q0Q0Q0Q13140e",
"  15161718191a1b1c1d1d1c1d1a1b1c1c1c1d1e1f0e",
"  1g1h1i1j1k1l1l1m1n1o1m1n1p1l1m1m1m1q1r1s  ",
"  1t1u1v1w1x1x1x1y1x1z1y1x1A1x1y1y1x1B1C0e  ",
"  1D1E1F1G1H1H1H1I1I1J1I1I1K1H1I1I1L1L1M    ",
"  1N1O1P1P1P1P1P1Q1R1S1Q1R1P1P1Q1R1T1U1V    ",
"    1W0y0y0y0y0y0y0y0y0y0y0y0y0y0y0y1X      ",
"                                            ",
"                                            ",
"                                            "};

