/* XPM */
static char *lsearchFrm_WxBitmapButton1_XPM[]={
/* lsearchFrm_WxBitmapButton1 */
"22 22 301 2",
"      c None",
" 0    c #8E938B",
" 1    c #8C9188",
" 2    c #8A8E85",
" 3    c #888C83",
" 4    c #868A82",
" 5    c #848880",
" 6    c #82867D",
" 7    c #81847B",
" 8    c #7E8279",
" 9    c #7C8177",
" a    c #7A7E75",
" b    c #787C73",
" c    c #767A73",
" d    c #747871",
" e    c #73766F",
" f    c #71746D",
" g    c #6F736B",
" h    c #6D7169",
" i    c #6D7068",
" j    c #6B7068",
" k    c #6D6D6D",
" l    c #8F9389",
" m    c #AAAEA7",
" n    c #E9E9E8",
" o    c #F1F2F1",
" p    c #F1F1F1",
" q    c #F0F0EF",
" r    c #EFEFEF",
" s    c #EEEEED",
" t    c #EDEDEC",
" u    c #ECECEB",
" v    c #E2E3E2",
" w    c #969893",
" x    c #676D64",
" y    c #8A8D84",
" z    c #E7E7E6",
" A    c #B9BBB5",
" B    c #8B8D88",
" C    c #8B8D89",
" D    c #8C8E89",
" E    c #8C8E8A",
" F    c #8C8F8A",
" G    c #8D8F8B",
" H    c #8D908B",
" I    c #8E908C",
" J    c #8E918C",
" K    c #8F918D",
" L    c #8F928D",
" M    c #90928E",
" N    c #B5B8B1",
" O    c #E1E2E0",
" P    c #5F645C",
" Q    c #848881",
" R    c #32372C",
" S    c #33382D",
" T    c #33372C",
" U    c #32362B",
" V    c #32362A",
" W    c #31362A",
" X    c #303529",
" Y    c #303528",
" Z    c #2F3428",
" &    c #2F3427",
"0     c #2D3324",
"00    c #949792",
"01    c #E5E6E5",
"02    c #5D6059",
"03    c #81847D",
"04    c #91948F",
"05    c #31352A",
"06    c #A8B890",
"07    c #A7B78F",
"08    c #A6B68E",
"09    c #A5B68D",
"0a    c #A4B58B",
"0b    c #A3B48A",
"0c    c #A2B488",
"0d    c #A1B387",
"0e    c #A0B285",
"0f    c #9FB083",
"0g    c #9DB082",
"0h    c #9DAF81",
"0i    c #9CAE7F",
"0j    c #9BAD7E",
"0k    c #2C3223",
"0l    c #979A95",
"0m    c #DEDEDD",
"0n    c #5A5E56",
"0o    c #7D8179",
"0p    c #959893",
"0q    c #1F231B",
"0r    c #6E795D",
"0s    c #6D785C",
"0t    c #6C785B",
"0u    c #6B775A",
"0v    c #6A7659",
"0w    c #697557",
"0x    c #677555",
"0y    c #677454",
"0z    c #677353",
"0A    c #667352",
"0B    c #657251",
"0C    c #647151",
"0D    c #616E4C",
"0E    c #191E13",
"0F    c #9B9E99",
"0G    c #D6D6D5",
"0H    c #585C55",
"0I    c #999B96",
"0J    c #2A2E23",
"0K    c #90A078",
"0L    c #8F9F77",
"0M    c #8E9E75",
"0N    c #8C9D74",
"0O    c #8B9C72",
"0P    c #8A9B71",
"0Q    c #899A6F",
"0R    c #889A6E",
"0S    c #86986C",
"0T    c #84976A",
"0U    c #7B8E5D",
"0V    c #6F854D",
"0W    c #657C41",
"0X    c #61793C",
"0Y    c #1C2311",
"0Z    c #9FA29C",
"0&    c #CDCECC",
"1     c #767A72",
"10    c #9C9F9A",
"11    c #1A1D15",
"12    c #5B674B",
"13    c #5A664A",
"14    c #596549",
"15    c #586446",
"16    c #576246",
"17    c #566244",
"18    c #546142",
"19    c #4B5936",
"1a    c #405029",
"1b    c #3E4D27",
"1c    c #3E4E27",
"1d    c #3F4E27",
"1e    c #12160B",
"1f    c #A2A5A0",
"1g    c #C4C5C2",
"1h    c #585C54",
"1i    c #72766D",
"1j    c #A0A39D",
"1k    c #21261B",
"1l    c #DBDFD7",
"1m    c #96A285",
"1n    c #72825B",
"1o    c #718259",
"1p    c #6F8058",
"1q    c #6F7F57",
"1r    c #637549",
"1s    c #546937",
"1t    c #516633",
"1u    c #526633",
"1v    c #526733",
"1w    c #526734",
"1x    c #181D0F",
"1y    c #A6A9A3",
"1z    c #BBBBB9",
"1A    c #6E726A",
"1B    c #F1F1F0",
"1C    c #A3A7A1",
"1D    c #141710",
"1E    c #BFC5B7",
"1F    c #F2F4F2",
"1G    c #D7DBD3",
"1H    c #606754",
"1I    c #3F4B2F",
"1J    c #374425",
"1K    c #334020",
"1L    c #334120",
"1M    c #344120",
"1N    c #0E1209",
"1O    c #AAADA7",
"1P    c #B2B2AF",
"1Q    c #696D65",
"1R    c #EEEEEE",
"1S    c #A7AAA4",
"1T    c #191D13",
"1U    c #53623E",
"1V    c #576643",
"1W    c #BDC3B5",
"1X    c #FBFCFB",
"1Y    c #42532A",
"1Z    c #42542A",
"1&    c #43542A",
"2     c #43542B",
"20    c #43552B",
"21    c #44552B",
"22    c #13180C",
"23    c #ADB1AA",
"24    c #AEAFAC",
"25    c #575B53",
"26    c #656961",
"27    c #E9EAE8",
"28    c #ABAEA8",
"29    c #0B0E07",
"2a    c #ADB3A4",
"2b    c #F0F1EF",
"2c    c #BCC1B5",
"2d    c #3C452F",
"2e    c #283319",
"2f    c #28331A",
"2g    c #29331A",
"2h    c #29341A",
"2i    c #2A341A",
"2j    c #2A351A",
"2k    c #2A351B",
"2l    c #0B0F07",
"2m    c #B1B4AE",
"2n    c #ACADAA",
"2o    c #61655E",
"2p    c #E4E4E3",
"2q    c #AEB2AC",
"2r    c #C8CCC4",
"2s    c #5B664D",
"2t    c #324021",
"2u    c #334021",
"2v    c #334121",
"2w    c #344121",
"2x    c #344222",
"2y    c #354322",
"2z    c #0F130A",
"2A    c #B4B8B1",
"2B    c #A9AAA7",
"2C    c #B2B6AF",
"2D    c #080A05",
"2E    c #1E2613",
"2F    c #1E2614",
"2G    c #1E2714",
"2H    c #1E2814",
"2I    c #1F2814",
"2J    c #1F2815",
"2K    c #090B06",
"2L    c #B8BCB5",
"2M    c #A6A7A3",
"2N    c #565A52",
"2O    c #5A5E55",
"2P    c #D7D8D6",
"2Q    c #B6B9B3",
"2R    c #0A0D07",
"2S    c #232D18",
"2T    c #232E18",
"2U    c #242E18",
"2V    c #FFFFFF",
"2W    c #253019",
"2X    c #263019",
"2Y    c #263119",
"2Z    c #26311A",
"2&    c #B9BDB6",
"3     c #A3A4A1",
"30    c #565A51",
"31    c #D0D1CF",
"32    c #B7BBB4",
"33    c #0A0C07",
"34    c #A1A19E",
"35    c #54584F",
"36    c #CCCCCA",
"37    c #979B95",
"38    c #9E9F9B",
"39    c #54574F",
"3a    c #B8B9B6",
"3b    c #8D8E8A",
"3c    c #777873",
"3d    c #A9DB76",
"3e    c #555A51",
"3f    c #64695F",
"3g    c #80807C",
"3h    c #969793",
"3i    c #4D5048",
"3j    c #737670",
"3k    c #BABBB8",
"3l    c #BDBEBB",
"3m    c #B9B9B7",
"3n    c #B6B7B4",
"3o    c #B4B5B2",
"3p    c #B0B0AD",
"3q    c #ABACA9",
"3r    c #A7A8A4",
"3s    c #A5A6A2",
"3t    c #A3A3A0",
"3u    c #A0A19D",
"3v    c #9E9F9C",
"3w    c #9C9D99",
"3x    c #979893",
"3y    c #6B6D66",
"3z    c #4D514A",
"3A    c #12120C",
"3B    c #4A4D45",
"3C    c #51554E",
"3D    c #595D55",
"3E    c #52564F",
"3F    c #494E47",
"3G    c #171711",
"3H    c #000000",
"   0 1 2 3 4 5 6 7 8 9 a b c d e f g h i j k",
" l m n o o o o o p p p p p p q r s t u v w x",
" y z A B C C D E F G G H I I J K K L M N O P",
" Q o J R S T T R U V W W X X Y Y Z &0 000102",
"03 o0405060708090a0b0c0d0e0f0g0h0i0j0k0l0m0n",
"0o o0p0q0r0s0t0u0v0w0w0x0y0z0A0B0C0D0E0F0G0H",
" a o0I0J0K0L0M0N0O0P0Q0R0S0T0U0V0W0X0Y0Z0&0H",
"1  o10111213141415161718191a1b1c1d1d1e1f1g1h",
"1i o1j1k1l1m1n1o1p1q1r1s1t1u1u1v1v1w1x1y1z1h",
"1A1B1C1D1E1F1G1H1I1J1K1L1L1L1L1M1M1M1N1O1P1h",
"1Q1R1S1T1U1V1W1X1Y1Y1Y1Z1&1&2 20202122232425",
"262728292a2b2c2d2e2f2g2g2h2h2i2j2j2k2l2m2n25",
"2o2p2q1N2r2s2t2u2v2v2v2w2x2x2x2x2y2y2z2A2B25",
"020m2C2D2E2E2E2F2G2G2G2G2H2I2I2J2J2J2K2L2M2N",
"2O2P2Q2R2S2T2U2V2V2V2V2V2W2W2W2X2Y2Z292&3 2N",
"303132332K2K2K2K2K2K2K2K2K2K2K2K2K2K2R32342N",
"3536372L2&2&2&2&2&2&2&2&2&2&2&2&2&2&2L37382N",
"393a3b3c3c3c3c3c3c3c3c3c3c3c3d3c3e3f3c3g3h35",
"3i3j3k3l1z3m3n3o1P3p243q2B3r3s3t3u3v3w3x3y3z",
"3A3B3C0H3D0H0H0H0H1h1h1h2525252N2N2N2N3E3F3G",
"3H3H3H3H3H3H3H3H3H3H3H3H3H3H3H3H3H3H3H3H3H3H",
"3H3H3H3H3H3H3H3H3H3H3H3H3H3H3H3H3H3H3H3H3H3H"};

